<svg xmlns="http://www.w3.org/2000/svg" viewBox="0 0 800 600" fill="none">
  <rect width="800" height="600" fill="#0D0A14"/>

  <g transform="translate(320, 50)">
    <rect width="160" height="60" rx="30" fill="#8B5CF6"/>
    <text x="80" y="35" fill="#ffffff" font-family="sans-serif" font-size="16" font-weight="bold" text-anchor="middle">All Documents</text>
  </g>

  <path d="M400 110 L400 150 L200 150 L200 200" stroke="#A78BFA" stroke-width="2"/>
  <path d="M400 110 L400 150 L600 150 L600 200" stroke="#A78BFA" stroke-width="2"/>

  <g transform="translate(120, 200)">
    <rect width="160" height="50" rx="8" fill="#1a1625" stroke="#8B5CF6" stroke-width="2"/>
    <text x="80" y="30" fill="#ffffff" font-family="sans-serif" font-size="14" text-anchor="middle">Corporate</text>
  </g>

  <g transform="translate(520, 200)">
    <rect width="160" height="50" rx="8" fill="#1a1625" stroke="#8B5CF6" stroke-width="2"/>
    <text x="80" y="30" fill="#ffffff" font-family="sans-serif" font-size="14" text-anchor="middle">HR & Talent</text>
  </g>

  <path d="M200 250 L200 300 L100 300 L100 350" stroke="#8B5CF6" stroke-width="2" opacity="0.7"/>
  <path d="M200 250 L200 300 L300 300 L300 350" stroke="#8B5CF6" stroke-width="2" opacity="0.7"/>

  <g transform="translate(40, 350)">
    <rect width="120" height="40" rx="4" fill="#1a1625" stroke="#A78BFA" stroke-width="1"/>
    <text x="60" y="25" fill="#E5E7EB" font-family="sans-serif" font-size="12" text-anchor="middle">Contracts</text>
  </g>
  <g transform="translate(240, 350)">
    <rect width="120" height="40" rx="4" fill="#1a1625" stroke="#A78BFA" stroke-width="1"/>
    <text x="60" y="25" fill="#E5E7EB" font-family="sans-serif" font-size="12" text-anchor="middle">M&A</text>
  </g>

    <path d="M600 250 L600 300 L500 300 L500 350" stroke="#8B5CF6" stroke-width="2" opacity="0.7"/>
  <path d="M600 250 L600 300 L700 300 L700 350" stroke="#8B5CF6" stroke-width="2" opacity="0.7"/>

  <g transform="translate(440, 350)">
    <rect width="120" height="40" rx="4" fill="#1a1625" stroke="#A78BFA" stroke-width="1"/>
    <text x="60" y="25" fill="#E5E7EB" font-family="sans-serif" font-size="12" text-anchor="middle">Employment</text>
  </g>
  <g transform="translate(640, 350)">
    <rect width="120" height="40" rx="4" fill="#1a1625" stroke="#A78BFA" stroke-width="1"/>
    <text x="60" y="25" fill="#E5E7EB" font-family="sans-serif" font-size="12" text-anchor="middle">NDA</text>
  </g>

</svg>