<svg xmlns="http://www.w3.org/2000/svg" viewBox="0 0 800 600" fill="none">
  <rect width="800" height="600" fill="#0D0A14"/>
  <rect x="0" y="0" width="240" height="600" fill="#1a1625"/>
  <rect x="20" y="150" width="200" height="50" rx="8" fill="#8B5CF6" fill-opacity="0.2"/>
  <text x="50" y="182" fill="#A78BFA" font-family="sans-serif" font-size="18" font-weight="bold">Dashboard</text>
  <rect x="20" y="220" width="200" height="50" rx="8" fill="none"/>
  <text x="50" y="252" fill="#6B7280" font-family="sans-serif" font-size="18">Documents</text>
  <rect x="20" y="290" width="200" height="50" rx="8" fill="none"/>
  <text x="50" y="322" fill="#6B7280" font-family="sans-serif" font-size="18">Settings</text>
  
  <path d="M240 300 L500 300" stroke="url(#paint0_linear)" stroke-width="4" marker-end="url(#arrowhead)"/>
  
  <rect x="540" y="200" width="220" height="200" rx="20" fill="#1a1625" stroke="#8B5CF6" stroke-width="2"/>
  <path d="M610 250 L690 250 L710 280 L710 350 L610 350 L610 250" fill="#8B5CF6" fill-opacity="0.5"/>
  <path d="M610 280 L710 280 L730 310 L730 380 L610 380 Z" fill="url(#paint1_linear)"/>
  <text x="585" y="440" fill="#A78BFA" font-family="sans-serif" font-size="24" font-weight="bold">Legal Templates</text>

  <defs>
    <linearGradient id="paint0_linear" x1="240" y1="300" x2="500" y2="300" gradientUnits="userSpaceOnUse">
      <stop stop-color="#1a1625"/>
      <stop offset="1" stop-color="#8B5CF6"/>
    </linearGradient>
    <linearGradient id="paint1_linear" x1="670" y1="280" x2="670" y2="380" gradientUnits="userSpaceOnUse">
      <stop stop-color="#8B5CF6"/>
      <stop offset="1" stop-color="#A78BFA"/>
    </linearGradient>
    <marker id="arrowhead" markerWidth="10" markerHeight="7" refX="9" refY="3.5" orient="auto">
      <polygon points="0 0, 10 3.5, 0 7" fill="#8B5CF6"/>
    </marker>
  </defs>
</svg>