<svg xmlns="http://www.w3.org/2000/svg" viewBox="0 0 800 600" fill="none">
  <rect width="800" height="600" fill="#0D0A14"/>
  
  <g transform="translate(100, 200)">
    <rect width="180" height="240" rx="8" fill="#1a1625" stroke="#A78BFA" stroke-width="2"/>
    <rect x="20" y="30" width="140" height="20" rx="2" fill="#8B5CF6" fill-opacity="0.3"/>
    <rect x="20" y="70" width="140" height="10" rx="2" fill="#374151"/>
    <rect x="20" y="90" width="120" height="10" rx="2" fill="#374151"/>
    <rect x="20" y="110" width="140" height="10" rx="2" fill="#374151"/>
    <rect x="20" y="130" width="100" height="10" rx="2" fill="#374151"/>
    <text x="90" y="200" fill="#ffffff" font-family="sans-serif" font-size="16" text-anchor="middle">Final Draft</text>
  </g>

  <path d="M280 320 L380 320" stroke="url(#arrowGradient)" stroke-width="4"/>
  <path d="M380 320 L420 150" stroke="url(#arrowGradient)" stroke-width="4"/>
  <path d="M380 320 L420 490" stroke="url(#arrowGradient)" stroke-width="4"/>

  <g transform="translate(450, 50)">
    <rect width="250" height="200" rx="12" fill="#1a1625" stroke="#8B5CF6" stroke-width="1"/>
    <path d="M125 60 L155 100 H135 V140 H115 V100 H95 L125 60 Z" fill="#A78BFA"/>
    <text x="125" y="170" fill="#ffffff" font-family="sans-serif" font-size="18" font-weight="bold" text-anchor="middle">PDF Export</text>
  </g>

  <g transform="translate(450, 390)">
    <rect width="250" height="200" rx="12" fill="#1a1625" stroke="#8B5CF6" stroke-width="1"/>
    <path d="M125 40 C80 50, 60 70, 60 120 C60 160, 125 190, 125 190 C125 190, 190 160, 190 120 C190 70, 170 50, 125 40 Z" fill="#8B5CF6" fill-opacity="0.2" stroke="#A78BFA" stroke-width="2"/>
    <path d="M100 110 C110 100, 120 100, 130 110 L140 100 C145 95, 150 95, 155 100" stroke="#ffffff" stroke-width="3" fill="none" stroke-linecap="round"/>
    <text x="125" y="170" fill="#ffffff" font-family="sans-serif" font-size="18" font-weight="bold" text-anchor="middle">Digital Signature</text>
    <rect x="160" y="140" width="40" height="20" rx="4" fill="#A78BFA"/>
    <text x="180" y="155" fill="#1a1625" font-family="sans-serif" font-size="12" font-weight="bold" text-anchor="middle">2FA</text>
  </g>

  <defs>
    <linearGradient id="arrowGradient" x1="280" y1="320" x2="420" y2="320" gradientUnits="userSpaceOnUse">
      <stop stop-color="#8B5CF6"/>
      <stop offset="1" stop-color="#A78BFA"/>
    </linearGradient>
  </defs>
</svg>